<svg xmlns="http://www.w3.org/2000/svg" viewBox="0 0 192 192">
  <rect width="192" height="192" rx="40" fill="#ffffff"/>
  <!-- Frites (or) -->
  <g transform="translate(132 34) rotate(8)" fill="#f4b62c">
    <rect x="0"  y="2"  width="9" height="40" rx="3"/>
    <rect x="12" y="-4" width="9" height="46" rx="3" fill="#f6c84c"/>
    <rect x="24" y="0"  width="9" height="42" rx="3"/>
    <rect x="36" y="6"  width="9" height="36" rx="3" fill="#f6c84c"/>
  </g>
  <!-- Monogramme : P or (derrière) -->
  <path transform="translate(28 30)" fill="#f4b62c" fill-rule="evenodd"
    d="M16,8 L60,8 C84,8 100,24 100,46 C100,68 84,84 60,84 L40,84 L40,132 L16,132 Z
       M40,30 L58,30 C68,30 74,36 74,46 C74,56 68,62 58,62 L40,62 Z"/>
  <!-- Monogramme : P rouge (devant) -->
  <path transform="translate(56 30)" fill="#d62027" fill-rule="evenodd"
    d="M16,8 L60,8 C84,8 100,24 100,46 C100,68 84,84 60,84 L40,84 L40,132 L16,132 Z
       M40,30 L58,30 C68,30 74,36 74,46 C74,56 68,62 58,62 L40,62 Z"/>
  <!-- Vague dorée -->
  <path d="M40,176 C75,164 117,164 152,176" stroke="#f4b62c" stroke-width="7"
    stroke-linecap="round" fill="none"/>
</svg>
