<?xml version="1.0" encoding="UTF-8" standalone="no"?>
<!DOCTYPE svg PUBLIC "-//W3C//DTD SVG 1.1//EN" "http://www.w3.org/Graphics/SVG/1.1/DTD/svg11.dtd">
<svg width="100%" height="100%" viewBox="0 0 2048 2048" version="1.1" xmlns="http://www.w3.org/2000/svg" xmlns:xlink="http://www.w3.org/1999/xlink" xml:space="preserve" xmlns:serif="http://www.serif.com/" style="fill-rule:evenodd;clip-rule:evenodd;stroke-linejoin:round;stroke-miterlimit:2;">
    <rect id="Plan-de-travail1" serif:id="Plan de travail1" x="0" y="0" width="2048" height="2048" style="fill:none;"/>
    <g id="Plan-de-travail11" serif:id="Plan de travail1">
        <g transform="matrix(6.318425,0,0,6.318425,-645.481014,-1912.464516)">
            <path d="M217.499,403.859C289.258,403.863 289.772,403.056 301.372,408.756C340.207,427.838 340.882,488.84 290.605,502.864C285.356,504.328 271.115,515.38 269.573,513.449C269.556,513.428 268.32,485.19 270.407,484.318C272.816,483.312 299.456,488.952 308.251,462.427C312.685,449.054 305.396,424.263 278.497,423.756C252.394,423.264 230.621,425.03 227.745,422.24C226.368,420.905 210.788,405.794 210.667,405.418C209.926,403.106 215.992,403.824 217.499,403.859Z" style="fill:rgb(205,40,45);"/>
        </g>
        <g transform="matrix(6.318425,0,0,6.318425,-645.481014,-1912.464516)">
            <path d="M229.254,450.5C229.435,445.757 229.1,445.675 229.811,444.748C229.905,444.625 230.326,444.077 231.548,443.907C232.433,443.784 277.817,443.81 279.472,443.887C286.897,444.232 290.295,451.463 289.277,455.466C285.983,468.435 269.843,462.991 251.404,464.03C248.286,464.206 249.262,470.873 249.262,479.5C249.263,525.93 249.559,526.629 247.61,527.665C231.126,536.423 230.928,537.39 229.773,536.268C229.722,536.219 229.117,536.206 229.254,450.5Z" style="fill:rgb(243,194,62);"/>
        </g>
    </g>
</svg>
