<?xml version="1.0" encoding="UTF-8" standalone="no"?>
<!DOCTYPE svg PUBLIC "-//W3C//DTD SVG 1.1//EN" "http://www.w3.org/Graphics/SVG/1.1/DTD/svg11.dtd">
<svg width="100%" height="100%" viewBox="0 0 2048 2048" version="1.1" xmlns="http://www.w3.org/2000/svg" xmlns:xlink="http://www.w3.org/1999/xlink" xml:space="preserve" xmlns:serif="http://www.serif.com/" style="fill-rule:evenodd;clip-rule:evenodd;stroke-linejoin:round;stroke-miterlimit:2;">
    <g id="Arrière-plan" transform="matrix(2,0,0,2,0,0)">
        <path d="M993.5,1023.999L0,1023.999C-1.116,1022.388 -0,1022.155 0,999.5L0,-0C2.148,-1.157 2.338,0 30.5,0L1023.999,0C1025.156,2.148 1023.999,2.338 1023.999,30.5L1023.999,1023.999C1021.851,1025.156 1021.661,1023.999 993.5,1023.999Z" style="fill:rgb(254,254,254);"/>
        <path d="M217.499,403.859C289.258,403.863 289.772,403.056 301.372,408.756C340.207,427.838 340.882,488.84 290.605,502.864C285.356,504.328 271.115,515.38 269.573,513.449C269.556,513.428 268.32,485.19 270.407,484.318C272.816,483.312 299.456,488.952 308.251,462.427C312.685,449.054 305.396,424.263 278.497,423.756C252.394,423.264 230.621,425.03 227.745,422.24C226.368,420.905 210.788,405.794 210.667,405.418C209.926,403.106 215.992,403.824 217.499,403.859Z" style="fill:rgb(205,40,45);"/>
        <path d="M229.254,450.5C229.435,445.757 229.1,445.675 229.811,444.748C229.905,444.625 230.326,444.077 231.548,443.907C232.433,443.784 277.817,443.81 279.472,443.887C286.897,444.232 290.295,451.463 289.277,455.466C285.983,468.435 269.843,462.991 251.404,464.03C248.286,464.206 249.262,470.873 249.262,479.5C249.263,525.93 249.559,526.629 247.61,527.665C231.126,536.423 230.928,537.39 229.773,536.268C229.722,536.219 229.117,536.206 229.254,450.5Z" style="fill:rgb(243,194,62);"/>
        <path d="M801.499,527.412C759.493,524.54 771.431,465.75 806.498,472.515C835.7,478.15 837.805,525.345 801.499,527.412Z" style="fill:rgb(206,38,46);"/>
        <path d="M359.52,590.588C359.46,590.021 358.279,590.047 358.219,589.481C358.065,588.032 394.585,554.428 503.467,569.707C639.096,588.738 641.583,584.215 684.509,576.122C690.046,575.078 692.04,573.794 691.887,575.516C691.753,577.015 658.991,588.319 618.501,588.641C532.529,589.327 459.151,559.919 390.612,575.994C375.473,579.545 364.596,587.248 362.588,588.67C361.836,589.202 359.769,590.439 359.52,590.588Z" style="fill:rgb(237,201,100);"/>
        <path d="M746.313,503.46C746.237,501.135 745.471,477.69 746.133,474.375C746.612,471.984 756.86,472.76 757.539,473.456C759.259,475.221 758.27,520.389 758.181,524.469C758.113,527.566 748.706,526.497 748.5,526.494C744.735,526.448 745.579,524.812 732.14,503.731C728.849,498.57 724.729,491.005 725.042,496.343C725.174,498.589 725.979,512.325 725.213,524.469C724.999,527.874 713.904,526.799 713.349,525.592C712.771,524.334 713.12,474.413 713.132,474.375C713.621,472.703 723.847,470.708 727.093,475.765C743.812,501.808 743.003,502.25 744.527,504.462C744.801,504.32 745.076,504.179 745.35,504.037C745.671,503.845 745.992,503.652 746.313,503.46Z" style="fill:rgb(207,39,47);"/>
        <path d="M451.5,526.53C446.284,526.425 445.587,527.554 444.752,525.451C444.694,525.306 464.243,473.996 466.37,473.191C467.776,472.658 476.176,472.459 477.07,473.843C479.249,477.212 478.895,477.394 495.943,520.316C496.121,520.765 498.04,525.596 497.281,526.2C497.212,526.255 486.061,528.159 484.632,524.441C482.138,517.954 483.071,517.178 480.65,516.184C479.952,515.897 462.366,514.995 460.901,516.808C460.451,517.364 458.01,524.171 457.79,524.644C456.581,527.241 452.47,526.513 451.5,526.53Z" style="fill:rgb(206,39,47);"/>
        <path d="M332.5,526.541C329.696,526.391 327.866,527.245 328.811,524.568C330.877,518.719 345.911,482.148 347.423,478.469C350.215,471.679 351.811,472.843 358.49,472.896C362.198,472.925 363.182,478.753 373.974,505.325C381.732,524.425 382.875,526.447 380.506,526.528C371.863,526.823 369.372,526.453 368.649,524.439C367.233,520.495 366.791,515.87 362.492,515.842C348.696,515.752 345.297,515.469 344.513,517.506C341.469,525.419 341.523,525.332 341.428,525.446C340.566,526.477 333.22,526.535 332.5,526.541Z" style="fill:rgb(206,39,46);"/>
        <path d="M627.5,526.528C623.182,526.291 622.545,527.186 621.786,525.372C621.361,524.358 621.573,475.13 621.656,474.54C621.973,472.261 633.617,471.233 633.71,475.483C634.056,491.258 631.273,494.275 636.503,494.25C649.396,494.189 649.325,494.204 649.427,494.167C652.439,493.056 650.226,477.318 651.089,474.36C651.833,471.81 661.553,473.004 661.654,473.034C663.465,473.559 663.119,474.392 663.192,523.499C663.199,528.002 655.862,526.551 653.499,526.523C647.659,526.453 653.593,506.452 649.405,504.952C649.164,504.866 636.129,504.813 635.361,505.001C632.037,505.817 634.636,522.53 633.455,525.476C632.707,527.34 632.069,526.359 627.5,526.528Z" style="fill:rgb(206,40,48);"/>
        <path d="M431.828,496.641C420.767,514.613 407.946,501.477 407.732,508.532C407.246,524.539 408.822,526.419 405.5,526.5C402.242,526.58 395.575,527.867 395.551,523.499C395.549,522.996 395.476,475.16 395.597,474.522C396.213,471.27 418.945,473.122 421.427,473.788C430.488,476.217 435.927,484.556 431.828,496.641Z" style="fill:rgb(206,39,47);"/>
        <path d="M589.502,515.424C594.082,515.053 594.059,515.16 598.466,513.412C602.331,511.879 605.706,522.011 604.316,523.308C595.671,531.372 560.737,529.084 559.255,500.507C558.017,476.642 589.022,465.438 604.171,475.905C606.164,477.282 601.987,487.349 598.635,486.115C569.539,475.405 561.707,513.102 589.502,515.424Z" style="fill:rgb(206,38,46);"/>
        <path d="M529.5,526.536C523.135,526.362 522.481,527.34 521.601,525.452C520.589,523.282 522.707,485.469 520.313,483.884C519.223,483.161 508.774,485.035 508.685,481.481C508.669,480.831 508.496,473.902 509.407,473.386C511.641,472.12 511.845,472.81 541.5,472.902C547.58,472.921 546.327,475.43 546.181,481.466C546.066,486.224 533.568,480.525 533.537,486.502C533.454,502.076 533.647,501.988 533.557,517.5C533.522,523.523 535.46,526.059 529.5,526.536Z" style="fill:rgb(207,39,47);"/>
        <path d="M802.507,515.593C777.551,514.729 787.608,475.95 807.355,484.833C817.115,489.224 820.887,512.996 802.507,515.593Z" style="fill:rgb(253,251,251);"/>
        <path d="M689.5,526.532C683.114,526.301 682.46,527.202 681.777,525.387C681.63,524.999 681.356,474.737 681.915,473.761C682.647,472.483 693.231,471.996 693.637,474.459C693.707,474.886 694.022,524.124 693.464,525.481C693.122,526.312 689.828,526.512 689.5,526.532Z" style="fill:rgb(206,39,45);"/>
        <path d="M799.321,439.423C797.858,439.77 797.853,439.731 797.741,439.798C794.134,441.93 789.576,465.589 789.537,466.621C780.998,466.432 788.474,456.17 790.473,435.493C790.973,430.325 791.522,426.134 795.416,426.975C800.14,427.995 802.081,427.666 801.041,432.4C800.707,433.92 800.701,433.871 799.321,439.423Z" style="fill:rgb(229,195,63);"/>
        <path d="M805.424,468.551C811.252,453.993 811.61,454.224 817.463,438.483C819.379,433.329 826.724,437.766 825.184,441.397C824.709,442.516 819.326,455.206 819.211,455.361C817.598,457.537 816.831,457.137 811.463,470.392C808.15,470.083 807.913,470.73 805.424,468.551Z" style="fill:rgb(229,195,62);"/>
        <path d="M801.58,468.195C801.021,462.367 810.415,444.739 806.328,441.725C803.638,439.742 804.189,439.153 805.661,432.537C806.542,428.576 805.439,423.788 814.506,426.481C815.894,426.894 818.682,427.722 812.358,444.452C804.456,465.355 803.664,466.516 802.503,468.215L801.58,468.195Z" style="fill:rgb(228,195,64);"/>
        <path d="M799.51,442.282C802.293,442.779 802.322,442.709 804.559,444.45L804.47,445.506C800.568,462.909 798.878,466.769 798.516,467.67C796.534,467.516 794.551,467.362 792.569,467.207C791.175,463.408 794.241,459.158 796.055,451.368C797.188,446.499 796.607,446.3 799.51,442.282Z" style="fill:rgb(229,195,61);"/>
        <path d="M783.565,467.583C775.071,469.656 773.157,470.635 772.319,471.064C768.024,473.263 769.32,467.853 770.448,457.495C771.301,449.658 777.678,454.028 779.159,457.603C781.261,462.675 782.427,462.162 783.565,467.583Z" style="fill:rgb(229,196,66);"/>
        <path d="M782.724,459.13C780.348,453.551 780.442,453.552 778.923,452.197C778.047,451.415 776.894,450.386 777.925,437.567C778.244,433.601 786.405,435.596 786.442,435.614C788.027,436.345 787.873,436.949 784.076,457.301C783.77,458.942 783.205,458.478 782.724,459.13Z" style="fill:rgb(228,196,62);"/>
        <path d="M415.387,496.152C410.402,497.013 407.688,497.936 407.682,493.498C407.679,491.318 406.81,482.879 409.526,482.685C420.537,481.9 424.915,491.834 415.387,496.152Z" style="fill:rgb(251,246,248);"/>
        <path d="M826.599,467.312C827.447,465.311 828.022,462.78 828.114,462.377C828.679,459.892 826.148,459.522 827.176,457.365C830.178,451.064 831.122,451.09 832.432,451.669C839.643,454.857 836.71,457.238 833.055,464.24C831.205,467.785 830.612,467.556 826.599,467.312Z" style="fill:rgb(229,196,64);"/>
        <path d="M824.143,467.154C822.998,469.515 823.246,469.686 821.092,471.079C814.72,475.2 814.195,471.695 813.871,471.362C818.996,458.881 819.299,458.574 820.412,458.79C827.212,460.106 824.306,463.224 824.143,467.154Z" style="fill:rgb(228,195,63);"/>
        <path d="M832.509,476.505C829.644,482.698 830.097,483.443 828.492,483.436C824.608,483.417 831.733,474.079 827.571,475.781C826.174,476.352 825.151,480.407 823.601,479.143C819.332,475.662 820.31,474.899 820.65,474.634C825.696,470.695 829.192,469.442 832.253,470.96C835.257,472.45 833.512,473.313 832.509,476.505Z" style="fill:rgb(229,195,73);"/>
        <path d="M356.124,490.833C360.289,502.257 361.336,504.781 359.411,505.024C349.234,506.306 349.975,503.144 350.248,502.433C354.6,491.108 354.691,490.684 355.414,490.916C355.951,491.089 355.865,490.864 356.124,490.833Z" style="fill:rgb(250,239,241);"/>
        <path d="M475.563,500.476C476.517,503.389 477.683,504.829 474.573,504.938C473.879,504.963 466.178,505.234 466.006,503.583C465.931,502.86 470.591,490.747 470.658,490.711C470.732,490.671 472.083,490.79 472.104,490.833C472.458,491.572 472.36,491.547 475.563,500.476Z" style="fill:rgb(251,242,241);"/>
        <path d="M799.321,439.423C799.323,439.83 799.907,440.087 799.908,440.494C799.908,440.494 799.541,442.139 799.51,442.282C796.607,446.3 797.188,446.499 796.055,451.368C794.241,459.158 791.175,463.408 792.569,467.207L791.622,467.079C791.256,467.109 790.891,467.138 790.525,467.168L789.537,466.621C789.576,465.589 794.134,441.93 797.741,439.798C797.853,439.731 797.858,439.77 799.321,439.423Z" style="fill:rgb(248,227,144);"/>
    </g>
</svg>
